<?xml version="1.0" encoding="UTF-8"?>
<svg version="1.1" xmlns="http://www.w3.org/2000/svg" width="48" height="48">
<path d="M0 0 C5.94 0 11.88 0 18 0 C17.16717288 4.16413559 16.33920962 6.65536612 14.4375 10.3125 C13.98246094 11.19550781 13.52742188 12.07851563 13.05859375 12.98828125 C12.70925781 13.65214844 12.35992188 14.31601562 12 15 C12.98742187 14.4946875 13.97484375 13.989375 14.9921875 13.46875 C16.28635176 12.81228987 17.58062845 12.15605133 18.875 11.5 C19.85146484 10.99919922 19.85146484 10.99919922 20.84765625 10.48828125 C25.7734375 8 25.7734375 8 28 8 C28.28780289 11.05071066 28.43668263 13.95939503 28 17 C24.82566993 19.90980256 23.3475117 20 19 20 C19 20.66 19 21.32 19 22 C19.56589844 22.13277344 20.13179687 22.26554687 20.71484375 22.40234375 C21.44832031 22.57894531 22.18179688 22.75554688 22.9375 22.9375 C24.03384766 23.19853516 24.03384766 23.19853516 25.15234375 23.46484375 C27 24 27 24 28 25 C28.07179964 26.51928038 28.08392007 28.04167482 28.0625 29.5625 C28.05347656 30.38878906 28.04445312 31.21507813 28.03515625 32.06640625 C28.02355469 32.70449219 28.01195312 33.34257813 28 34 C25.09325931 33.3588072 22.57468666 32.43337318 19.890625 31.15234375 C19.13652344 30.79462891 18.38242187 30.43691406 17.60546875 30.06835938 C16.82816406 29.69517578 16.05085938 29.32199219 15.25 28.9375 C14.45722656 28.56044922 13.66445313 28.18339844 12.84765625 27.79492188 C10.89688254 26.86654161 8.94823094 25.93370456 7 25 C5.35 28.3 3.7 31.6 2 35 C-3.94 35 -9.88 35 -16 35 C-15.12638145 29.75828872 -13.90335048 26.46293954 -11.375 22 C-10.65200599 20.68709962 -9.93069307 19.37327229 -9.2109375 18.05859375 C-8.66131348 17.05868408 -8.66131348 17.05868408 -8.10058594 16.03857422 C-5.25518262 10.76813994 -2.65590861 5.36714865 0 0 Z " fill="#35B348" transform="translate(18,7)"/>
</svg>
